PathFileType	4	(X/Y/Z)	56_1_tpose_p0_0-287_filt_butterworth.trc
DataRate	CameraRate	NumFrames	NumMarkers	Units	OrigDataRate	OrigDataStartFrame	OrigNumFrames
60.0	60.0	6	27	m	60.0	35	287
Frame#	Time	RHip			RKnee			RAnkle			RBigToe			RSmallToe			RHeel			LHip			LKnee			LAnkle			LBigToe			LSmallToe			LHeel			Neck			Head			Nose			RShoulder			RElbow			RWrist			RThumb			RIndex			RPinky			LShoulder			LElbow			LWrist			LThumb			LIndex			LPinky			
		X1	Y1	Z1	X2	Y2	Z2	X3	Y3	Z3	X4	Y4	Z4	X5	Y5	Z5	X6	Y6	Z6	X7	Y7	Z7	X8	Y8	Z8	X9	Y9	Z9	X10	Y10	Z10	X11	Y11	Z11	X12	Y12	Z12	X13	Y13	Z13	X14	Y14	Z14	X15	Y15	Z15	X16	Y16	Z16	X17	Y17	Z17	X18	Y18	Z18	X19	Y19	Z19	X20	Y20	Z20	X21	Y21	Z21	X22	Y22	Z22	X23	Y23	Z23	X24	Y24	Z24	X25	Y25	Z25	X26	Y26	Z26	X27	Y27	Z27	
35	0.5833333333333334	0.439419663126028	0.6525270006161188	0.2564165927472758	0.4761653511845625	0.846899804148798	0.6628966865515881	0.4974284366567083	1.0822025862464442	1.0816502903009169	0.3984485447353301	0.8592960930697501	1.1340986011580838	0.47571182417976293	0.9110684697669715	1.1543807462229827	0.5116034654945844	1.1734542931880427	1.1262828891650216	0.2638434370206375	0.7439779009425868	0.2328573508588478	0.30704165273231093	0.9374125273497375	0.6468243916940082	0.32721668700170703	1.106342386814399	1.0398340122371705	0.2479688639040031	0.9024556013686179	1.1201109774938405	0.2300918578571072	0.9988727041302767	1.1302867546883197	0.3650263232542273	1.1955338230879338	1.1053741833974822	0.3496359191819184	0.5060098543350182	-0.25397894930058873	0.3320448138053009	0.38427460860966833	-0.4514344011949769	0.28832113812906435	0.36293781812429987	-0.31418643771612986	0.48914949628158577	0.47080985136191333	-0.1838527541691368	0.7620890397935038	0.4333481387962403	-0.2138408966131462	1.008681090997848	0.389860996031614	-0.22790251155302138	1.1162881155312956	0.36317027303032073	-0.2149770042431088	1.1326723051241436	0.34150641096114864	-0.2168895333501953	1.11715472331608	0.3725649763251765	-0.21771860354858663	0.2197047653941152	0.6157363917617009	-0.23670667703402168	0.006795017989576955	0.7507522578873386	-0.2979335475556759	-0.22361220198554024	0.8527437890153882	-0.38081968696081725	-0.31439277236709284	0.8823619233117055	-0.3930523869554264	-0.31902469260178384	0.8687459703282957	-0.39575769877440514	-0.2998850929819783	0.9084913582372887	-0.40318974963677257
36	0.6	0.44027305204977657	0.6535316840132119	0.25646175677410604	0.4761477090106917	0.8461792881873323	0.6614864813511878	0.49723216323317093	1.0796958110780954	1.0809072804614597	0.40060730245500553	0.8625579874294713	1.135072671241272	0.4757599645474806	0.9109933437367516	1.1543882822515825	0.5114776636308449	1.1733555958981732	1.1262517314120293	0.2639421409585266	0.7440973793913744	0.23286326359889303	0.30700397368372556	0.9372588366427255	0.6461161259097903	0.32727258214208765	1.1063478960013455	1.0374749216812826	0.24889599778171992	0.9005627195728572	1.1189693502795042	0.2301318990600742	0.9988156337266245	1.130153618051875	0.3624642676101433	1.1894380072632849	1.1007128218203275	0.3496563502257254	0.5060266169673007	-0.25398761201775905	0.33209760155325113	0.3843483570167374	-0.45149759272117673	0.28839180766749734	0.36292565168011	-0.3141437116727968	0.48914763543637996	0.47078899027393856	-0.18388846815204826	0.7646997779800826	0.43582071608655487	-0.21639528528535767	1.0072679809672918	0.3895120636930166	-0.2280942187030636	1.117464321137253	0.3655833319226789	-0.213355334542926	1.1335779100203138	0.35310044955564723	-0.21765001848878254	1.1152413879886245	0.3737876445831617	-0.21398851119154735	0.21965723433302967	0.6157597983267769	-0.23671878895378767	0.007320775029851619	0.7509597699903569	-0.29695810292507485	-0.22304970969075033	0.8528534600562935	-0.38225999188628024	-0.31434832789319367	0.8827056203694362	-0.39322519400718337	-0.3190293208874565	0.8690497829622739	-0.39612212200219926	-0.29919995780995434	0.9101268747302456	-0.4037239285594726
37	0.6166666666666667	0.44236529988905987	0.6561780180865667	0.25648453444763825	0.4759165219141993	0.8456001541372213	0.6604500146291551	0.49738041186891974	1.079486402473122	1.0812375723651377	0.4015898115930735	0.8640307060560044	1.135457906237941	0.4757195883055807	0.910920997191623	1.15437415668354	0.5114579049237108	1.1733316493309658	1.1262233964552273	0.26399734750797754	0.7441738901933023	0.23287377749562826	0.30700053440440683	0.9372501866879086	0.6462422985965874	0.3273856961375816	1.1063070392217003	1.0357607722705335	0.2483173369932245	0.898848118351903	1.1171169237759249	0.23015607525733878	0.9987502782062226	1.1300683828264453	0.3600287640126883	1.182055471877708	1.097125562510647	0.3496804113836389	0.5060487080416678	-0.2540061098367196	0.33216775979005725	0.38441197419368445	-0.4515458029621454	0.2884579067301617	0.3629622898798206	-0.31409304099592755	0.48917429477626445	0.4707750831511179	-0.18391856298301484	0.766881641505146	0.43892251391355114	-0.21820888347983142	1.005448620121557	0.390971480210481	-0.2283644217462895	1.1215747420353133	0.37193008400066524	-0.21318009360912454	1.137325954007785	0.3679069580916927	-0.21921788882825355	1.1144697751496828	0.37789595650775265	-0.21047538104541327	0.21964609032378696	0.6158245609992026	-0.23672855818035748	0.007187679336331906	0.7510801012227559	-0.2960767274526107	-0.22182635641351878	0.8533247879050853	-0.3834138801353692	-0.3143494618541735	0.8829298830899667	-0.3933072920593977	-0.319014990166749	0.8691286012135123	-0.39570630029764253	-0.29895590176001546	0.9104966583489866	-0.4039476120731996
38	0.6333333333333333	0.44507933147019907	0.6598447092722068	0.25646511861389404	0.47561620709597313	0.8452278953895093	0.6599247152960307	0.49748950177393503	1.080126853082062	1.082042582155317	0.40174025087151577	0.8642505303076853	1.1354693347572833	0.47562169292595	0.9108800008628697	1.1543495082726245	0.5115507009098273	1.1733925948670678	1.1262298228557772	0.26401479068746886	0.7442244046366593	0.23287286754379738	0.30700224402081716	0.9372785884462597	0.6471616529851109	0.32751698065233087	1.1062778127980797	1.0354981248477846	0.24631736672920923	0.898474563146716	1.1154633901716697	0.23015808074895935	0.9987146723230136	1.1300547627366946	0.35955769553250666	1.1777020016096271	1.0957286107709678	0.34969581585254644	0.5060590887160766	-0.2540240798589994	0.33220658685464255	0.38443903998068746	-0.45156680577867786	0.2884972397431908	0.363018899229082	-0.3140565401602621	0.48919565381798785	0.470771856140443	-0.18393528913700435	0.76838289843241	0.4433614188145996	-0.21912876593978803	1.0041487893920502	0.3952562671813884	-0.2291692374292909	1.1275838194823842	0.3812514107382671	-0.21445759523056934	1.1427945097767396	0.3817920825170398	-0.22129362074324802	1.1161141516359119	0.3841278488220412	-0.20955174326468434	0.2196353995106285	0.6158609327554807	-0.23671511065354234	0.006968983464552183	0.7510890299126126	-0.29569185740020487	-0.2202489888907272	0.8539992928461532	-0.3840492961848483	-0.3143565550933534	0.8829741369250794	-0.39330014846840733	-0.3189931884777707	0.86910138716335	-0.39478404625111324	-0.2989046459876236	0.9103957304093009	-0.40398748252592936
39	0.65	0.4471139835559934	0.6628661052791387	0.2564168891865431	0.4754970956473963	0.8448271448974958	0.6593631926021066	0.497272542323757	1.0808032497929942	1.0825428628971512	0.40141958466021765	0.8637714103062768	1.1354026139679831	0.47552020041035387	0.9108578504909264	1.154324237262116	0.51169005327752	1.1735153001673726	1.1262869699695959	0.26401828332883165	0.7442792127805264	0.2328654717190231	0.30700682724157274	0.9372918137131858	0.6481911135914343	0.32757464413552334	1.106325283803534	1.0362260508599146	0.2437308517766684	0.8995483622999614	1.1151275854623688	0.23014789540837546	0.9987172494255776	1.1300982593062099	0.36100854824529843	1.1769388661789935	1.0961074835219535	0.34970121315108094	0.5060478149745451	-0.25403404110627625	0.3321027452331193	0.38442095032233803	-0.45155941037724723	0.2884968819028333	0.36302087030179175	-0.3141306053215702	0.4892020293838294	0.4707748380335132	-0.18394428268523783	0.7694432709195068	0.4485793527878248	-0.21932137491493342	1.0036386374257746	0.40090077054806317	-0.23027287762115775	1.1324497983742665	0.38888040324178946	-0.21592538042096704	1.1489161567501707	0.3940723372494347	-0.2235597272414946	1.1199864577390894	0.39132583803448073	-0.2106344439784962	0.21960927919491297	0.6158331290334209	-0.2366782232049257	0.006853765467930996	0.7509995241264089	-0.29565272534505316	-0.2190135373543569	0.8544892568200165	-0.38430307903384875	-0.31435608704351875	0.8828762803716275	-0.39324353265483925	-0.31899154561139453	0.8689756298428064	-0.3940907603116421	-0.29893807869679323	0.9101989264163662	-0.4039280412527822
40	0.6666666666666666	0.4478876465732625	0.6642929075433354	0.25637556232044106	0.47551054419646055	0.8442366433100429	0.6583565729933867	0.49688200441830555	1.0813342855478516	1.0828603285583285	0.4004294767340276	0.8623002729171851	1.1353200224949955	0.47546877747760996	0.9108461452869914	1.1543103072285328	0.5117797205524388	1.1736210554614563	1.1263599420990926	0.26401301552574385	0.7443224845109094	0.23285852462898138	0.3070096598381888	0.9372874508452065	0.6486637531179956	0.3275016945923041	1.1064001143835849	1.0373422589510084	0.24212131177739837	0.9012532053302204	1.1164691813164394	0.23013788062820004	0.9987460165126157	1.1301684668854135	0.36258602817768426	1.176254137861435	1.097529602234174	0.34970306411670293	0.5060243596831231	-0.2540362849299324	0.3317062544797148	0.38434348994402223	-0.4515200187593109	0.28842810745185127	0.362830352075752	-0.3145119750705685	0.48920057256652794	0.4707735034997054	-0.18395701416577132	0.7700684177504504	0.45261291521564107	-0.2191570246845367	1.003633607399578	0.4051256122929971	-0.23110293800643839	1.134665707694427	0.391960362431039	-0.2169562532402721	1.1559744154311802	0.40506422316575696	-0.22565818826649164	1.1249474673568742	0.3982306467991813	-0.2122320002159311	0.2195863744289938	0.6157776428869011	-0.23664568354485252	0.006832012752851198	0.7509181030063572	-0.2957171632901293	-0.21845777963028562	0.8546368308642397	-0.3843175649664853	-0.31435724864085857	0.8827282626037727	-0.39316919614051027	-0.31902663302171846	0.8686963656254911	-0.3937396291620117	-0.29901587165201315	0.9100217982599987	-0.40382965293057527
